<mxfile host="app.diagrams.net" modified="2024-04-17T03:49:21.141Z" agent="Mozilla/5.0 (Windows NT 10.0; Win64; x64) AppleWebKit/537.36 (KHTML, like Gecko) Chrome/123.0.0.0 Safari/537.36" version="24.2.3" etag="Tu7ZijNTGftzmDaCGkL5" type="github">
  <diagram name="第 1 页" id="euKrOmpZrybL7B7oZrKL">
    <mxGraphModel>
      <root>
        <mxCell id="0" />
        <mxCell id="1" parent="0" />
      </root>
    </mxGraphModel>
  </diagram>
</mxfile>
